<!--
  ~ Copyright (C) 2021 Bosutech XXI S.L.
  ~
  ~ nucliadb is offered under the AGPL v3.0 and as commercial software.
  ~ For commercial licensing, contact us at info@nuclia.com.
  ~
  ~ AGPL:
  ~ This program is free software: you can redistribute it and/or modify
  ~ it under the terms of the GNU Affero General Public License as
  ~ published by the Free Software Foundation, either version 3 of the
  ~ License, or (at your option) any later version.
  ~
  ~ This program is distributed in the hope that it will be useful,
  ~ but WITHOUT ANY WARRANTY; without even the implied warranty of
  ~ MERCHANTABILITY or FITNESS FOR A PARTICULAR PURPOSE. See the
  ~ GNU Affero General Public License for more details.
  ~
  ~ You should have received a copy of the GNU Affero General Public License
  ~ along with this program. If not, see <http://www.gnu.org/licenses/>.
-->

<svg width="297" height="98" xmlns="http://www.w3.org/2000/svg" viewBox="0 0 297 98">
  <path fill="#ff006a" d="M5,27.62,5,27.6l-.07,0a.14.14,0,0,0-.07.12V73.13a.15.15,0,0,0,.07.12L44.12,95.06a.1.1,0,0,0,.13,0,.12.12,0,0,0,.07-.11V53a4.86,4.86,0,0,1-3.08-4.55,3.81,3.81,0,0,1,.06-.6Z"/>
  <path fill="#2500ff" d="M48.29,52.94V94.86a.14.14,0,0,0,.07.12.12.12,0,0,0,.13,0L87.4,73.4a.15.15,0,0,0,.07-.12V28.09A.16.16,0,0,0,87.4,28a.14.14,0,0,0-.13,0L51.15,48v0a2.34,2.34,0,0,1,0,.39A4.92,4.92,0,0,1,48.29,52.94Z"/>
  <path fill="#ffdc1b" d="M46.29,2.52a.15.15,0,0,0-.13,0L7.12,24a.11.11,0,0,0-.07.11.13.13,0,0,0,.07.12l36.22,20.2a5,5,0,0,1,2.94-.94,4.76,4.76,0,0,1,2.95,1l36-20a.14.14,0,0,0,0-.24Z"/>
  <path d="M240.6,43.9h-2.93l2.21-8.15h9.75V60.2h2.87l-2.15,8.15H240.6Zm-.7-17.74a5,5,0,1,1,5,5A4.92,4.92,0,0,1,239.9,26.16Z"/>
  <path d="M255.11,52.05c0-9.85,6.78-17.22,15.85-17.22a12.46,12.46,0,0,1,10.88,5.55V35.75h8.89V60.2h2.93l-2.21,8.15h-9.61V57.26L279,66.65A13.19,13.19,0,0,1,271,69.26C261.89,69.26,255.11,62,255.11,52.05Zm26.73-.17a8.74,8.74,0,1,0-17.48,0,8.74,8.74,0,1,0,17.48,0Z"/>
  <path d="M132.75,34.37a13.88,13.88,0,0,0-9,3.08V35.09h-9V68.27h9.7V49a5.49,5.49,0,0,1,5.68-5.8c3.32,0,5.54,2.33,5.54,5.8v19.3h9.65V47.8C145.33,39.64,140.39,34.37,132.75,34.37Z"/>
  <path d="M172.2,54.32a5.4,5.4,0,0,1-5.55,5.74A5.46,5.46,0,0,1,161,54.32V35.09h-9.71V53.6c0,9.1,6.33,15.45,15.38,15.45S181.9,62.7,181.9,53.6V35.09h-9.7Z"/>
  <path d="M211.53,55.62c-2.17,3.07-4.45,4.44-7.39,4.44-4.72,0-8-3.46-8-8.41s3.38-8.35,8-8.35c3,0,5.34,1.42,7.38,4.49l.27.41,6.82-5.3-.18-.34A16,16,0,0,0,204,34.37c-9.94,0-17.73,7.59-17.73,17.28A17.39,17.39,0,0,0,204,69.05a16,16,0,0,0,14.42-8.25l.19-.34-6.82-5.22Z"/>
  <rect x="222.8" y="18.46" width="9.71" height="49.8"/>
</svg>