<svg id="Capa_1" data-name="Capa 1" xmlns="http://www.w3.org/2000/svg" viewBox="0 0 596 595.28"><defs><style>.cls-1,.cls-10,.cls-11,.cls-18,.cls-19,.cls-20,.cls-4,.cls-6,.cls-8{fill:none;stroke-width:1.5px;}.cls-1{stroke:#9b9b9b;}.cls-1,.cls-10,.cls-11,.cls-12,.cls-13,.cls-18,.cls-19,.cls-20,.cls-4,.cls-6,.cls-8{stroke-miterlimit:10;}.cls-2{fill:#9b9b9b;}.cls-3{fill:#a6a8ab;opacity:0.2;}.cls-18,.cls-19,.cls-20,.cls-4{stroke:gold;}.cls-4,.cls-6{stroke-dasharray:2 2;}.cls-5{fill:gold;}.cls-10,.cls-11,.cls-6{stroke:#1f9aff;}.cls-7{fill:#1f9aff;}.cls-8{stroke:#f06;}.cls-9{fill:#f06;}.cls-11{stroke-dasharray:1.98 1.98;}.cls-12,.cls-15,.cls-22{fill:#231f20;}.cls-12{stroke:#fff;}.cls-13,.cls-16,.cls-17,.cls-21{fill:#fff;}.cls-13{stroke:#231f20;}.cls-14,.cls-17{font-size:15px;font-family:Poppins-Regular, Poppins;}.cls-19{stroke-dasharray:2 2;}.cls-20{stroke-dasharray:1.99 1.99;}.cls-21,.cls-22{font-size:9px;font-family:Poppins-Medium, Poppins;font-weight:500;}</style></defs><polyline class="cls-1" points="312.66 69.25 454.55 69.25 454.55 118.05"/><polygon class="cls-2" points="448.41 113.08 449.51 112.06 454.54 117.48 459.58 112.06 460.68 113.08 454.54 119.68 448.41 113.08"/><line class="cls-1" x1="268.72" y1="97.35" x2="268.72" y2="117.33"/><polygon class="cls-2" points="262.59 112.36 263.69 111.34 268.72 116.76 273.76 111.34 274.86 112.36 268.72 118.96 262.59 112.36"/><rect class="cls-3" x="186.25" y="330.61" width="368.69" height="230.59"/><polyline class="cls-4" points="312.66 250.13 432.46 250.13 432.46 354.66"/><polygon class="cls-5" points="426.33 349.69 427.43 348.67 432.46 354.08 437.5 348.67 438.6 349.69 432.46 356.29 426.33 349.69"/><polyline class="cls-6" points="312.66 263.78 414.96 263.78 414.96 354.3"/><polygon class="cls-7" points="408.83 349.33 409.93 348.31 414.96 353.72 420 348.31 421.1 349.33 414.96 355.93 408.83 349.33"/><line class="cls-4" x1="268.72" y1="269.13" x2="268.72" y2="353.36"/><polygon class="cls-5" points="262.59 348.39 263.69 347.36 268.72 352.78 273.76 347.36 274.86 348.39 268.72 354.98 262.59 348.39"/><line class="cls-6" x1="250.1" y1="269.13" x2="250.1" y2="353.36"/><polygon class="cls-7" points="243.97 348.39 245.06 347.36 250.1 352.78 255.14 347.36 256.24 348.39 250.1 354.98 243.97 348.39"/><line class="cls-8" x1="486.78" y1="178.44" x2="486.78" y2="352.52"/><polygon class="cls-9" points="480.64 347.55 481.74 346.53 486.77 351.95 491.81 346.53 492.91 347.55 486.77 354.15 480.64 347.55"/><line class="cls-10" x1="471.52" y1="178.44" x2="471.52" y2="179.44"/><line class="cls-11" x1="471.52" y1="181.41" x2="471.52" y2="350.53"/><line class="cls-10" x1="471.52" y1="351.52" x2="471.52" y2="352.52"/><polygon class="cls-7" points="465.39 347.55 466.49 346.53 471.52 351.95 476.56 346.53 477.65 347.55 471.52 354.15 465.39 347.55"/><rect class="cls-12" x="229.06" y="47.39" width="88.37" height="52.41"/><rect class="cls-13" x="226.24" y="45.14" width="86.82" height="50.5"/><text class="cls-14" transform="translate(253.85 76.03)">One</text><rect class="cls-12" x="228.65" y="219.16" width="88.37" height="52.41"/><rect class="cls-15" x="226.32" y="217.41" width="85.82" height="49.5"/><path class="cls-16" d="M311.63,217.91v48.5H226.82v-48.5h84.81m1-1H225.82v50.5h86.81v-50.5Z"/><text class="cls-17" transform="translate(245.77 247.81)">Ingest</text><rect class="cls-15" x="228.65" y="366.07" width="88.37" height="51.41"/><rect class="cls-13" x="225.82" y="363.82" width="86.82" height="50.5"/><text class="cls-14" transform="translate(244.59 394.72)">Node 1</text><rect class="cls-15" x="410.87" y="367.93" width="88.37" height="51.41"/><rect class="cls-13" x="408.05" y="365.68" width="86.82" height="50.5"/><text class="cls-14" transform="translate(424.9 396.57)">Node 2</text><rect class="cls-15" x="410.87" y="489.03" width="88.37" height="51.41"/><rect class="cls-13" x="408.05" y="486.79" width="86.82" height="50.5"/><text class="cls-14" transform="translate(424.8 517.68)">Node 3</text><polyline class="cls-1" points="225.5 69.25 83.61 69.25 83.61 118.05"/><polygon class="cls-2" points="77.48 113.08 78.58 112.06 83.61 117.48 88.65 112.06 89.75 113.08 83.61 119.68 77.48 113.08"/><polyline class="cls-1" points="426.46 177.72 426.46 230.88 324.3 230.88"/><polygon class="cls-2" points="329.26 224.74 330.29 225.84 324.87 230.88 330.29 235.91 329.26 237.01 322.67 230.88 329.26 224.74"/><polyline class="cls-8" points="458.81 178.02 458.81 311.79 302.6 311.79 302.6 353.42"/><polygon class="cls-9" points="296.47 348.44 297.57 347.42 302.6 352.84 307.64 347.42 308.74 348.44 302.6 355.04 296.47 348.44"/><polyline class="cls-6" points="447.35 178.02 447.35 297.69 284.96 297.69 284.96 353.42"/><polygon class="cls-7" points="278.82 348.44 279.92 347.42 284.96 352.84 289.99 347.42 291.09 348.44 284.96 355.04 278.82 348.44"/><polyline class="cls-1" points="113.84 177.97 113.84 230.88 216.01 230.88"/><polygon class="cls-2" points="211.04 237.01 210.02 235.91 215.44 230.88 210.02 225.84 211.04 224.74 217.64 230.88 211.04 237.01"/><line class="cls-18" x1="96.57" y1="177.97" x2="96.57" y2="178.97"/><line class="cls-19" x1="96.57" y1="180.97" x2="96.57" y2="251.85"/><polyline class="cls-18" points="96.57 252.85 96.57 253.85 97.57 253.85"/><line class="cls-20" x1="99.56" y1="253.85" x2="214.02" y2="253.85"/><line class="cls-18" x1="215.02" y1="253.85" x2="216.02" y2="253.85"/><polygon class="cls-5" points="211.05 259.98 210.03 258.88 215.44 253.85 210.03 248.81 211.05 247.71 217.65 253.85 211.05 259.98"/><line class="cls-8" x1="268.72" y1="184.45" x2="268.72" y2="213.22"/><polygon class="cls-9" points="262.59 208.25 263.69 207.23 268.72 212.65 273.76 207.23 274.86 208.25 268.72 214.85 262.59 208.25"/><rect class="cls-2" x="115.84" y="61.08" width="51.41" height="17.75" rx="8.87"/><text class="cls-21" transform="translate(125.9 72.82)">Embed</text><rect class="cls-7" x="339.41" y="254.22" width="38.12" height="17.75" rx="8.87"/><text class="cls-21" transform="translate(346.37 265.96)">SWIM</text><rect class="cls-2" x="355.23" y="61.08" width="51.41" height="17.75" rx="8.87"/><text class="cls-21" transform="translate(365.56 72.82)">Embed</text><rect class="cls-2" x="348.31" y="220.48" width="51.41" height="17.75" rx="8.87"/><text class="cls-21" transform="translate(358.64 232.22)">Embed</text><rect class="cls-2" x="134.85" y="220.48" width="51.41" height="17.75" rx="8.87"/><text class="cls-21" transform="translate(145.18 232.22)">Embed</text><rect class="cls-5" x="140.3" y="245.06" width="37.17" height="17.75" rx="8.87"/><text class="cls-22" transform="translate(149.49 257.2)">TXN</text><rect class="cls-5" x="385.38" y="241.26" width="37.17" height="17.75" rx="8.87"/><text class="cls-22" transform="translate(394.57 253.4)">TXN</text><line class="cls-6" x1="323.9" y1="392.19" x2="399.84" y2="392.19"/><polygon class="cls-7" points="328.87 398.32 329.89 397.22 324.48 392.19 329.89 387.15 328.87 386.05 322.27 392.19 328.87 398.32"/><polygon class="cls-7" points="394.87 398.32 393.85 397.22 399.27 392.19 393.85 387.15 394.87 386.05 401.47 392.19 394.87 398.32"/><line class="cls-6" x1="451.56" y1="425.91" x2="451.56" y2="477.79"/><polygon class="cls-7" points="445.43 430.88 446.52 431.9 451.56 426.48 456.59 431.9 457.69 430.88 451.56 424.28 445.43 430.88"/><polygon class="cls-7" points="445.43 472.81 446.52 471.79 451.56 477.21 456.59 471.79 457.69 472.81 451.56 479.41 445.43 472.81"/><polyline class="cls-6" points="265.97 431.16 265.97 513.11 393.37 513.11"/><polygon class="cls-7" points="259.83 436.13 260.93 437.15 265.96 431.73 271 437.15 272.1 436.13 265.96 429.53 259.83 436.13"/><polygon class="cls-7" points="388.4 519.24 387.37 518.14 392.79 513.11 387.37 508.07 388.4 506.98 394.99 513.11 388.4 519.24"/><rect class="cls-12" x="228.65" y="126.85" width="88.37" height="52.41"/><rect class="cls-13" x="225.82" y="124.6" width="86.82" height="50.5"/><text class="cls-14" transform="translate(241.98 155.5)">Reader</text><rect class="cls-12" x="413.34" y="126.85" width="88.37" height="52.41"/><rect class="cls-13" x="410.51" y="124.6" width="86.82" height="50.5"/><text class="cls-14" transform="translate(427.2 155.5)">Search</text><rect class="cls-12" x="43.96" y="126.85" width="88.37" height="52.41"/><rect class="cls-13" x="41.13" y="124.6" width="86.82" height="50.5"/><text class="cls-14" transform="translate(61.95 155.5)">Writer</text><rect class="cls-9" x="249.87" y="184.9" width="38.12" height="17.75" rx="8.87"/><text class="cls-21" transform="translate(256.71 196.65)">GRPC</text><rect class="cls-9" x="346.92" y="302.66" width="38.12" height="17.75" rx="8.87"/><text class="cls-21" transform="translate(353.76 314.4)">GRPC</text><rect class="cls-9" x="468.52" y="251.87" width="38.12" height="17.75" rx="8.87" transform="translate(226.83 748.32) rotate(-90)"/><text class="cls-21" transform="translate(490.45 272.95) rotate(-90)">GRPC</text></svg>