<?xml version="1.0" encoding="utf-8"?>
<!-- Generator: Adobe Illustrator 26.0.3, SVG Export Plug-In . SVG Version: 6.00 Build 0)  -->
<svg version="1.1" id="Capa_1" xmlns="http://www.w3.org/2000/svg" xmlns:xlink="http://www.w3.org/1999/xlink" x="0px" y="0px"
	 viewBox="0 0 596 595.28" style="enable-background:new 0 0 596 595.28;" xml:space="preserve">
<style type="text/css">
	.st0{fill:none;stroke:#000000;stroke-miterlimit:10;}
	.st1{fill:#231F20;}
	.st2{fill:#FFFFFF;stroke:#231F20;stroke-miterlimit:10;}
	.st3{fill:none;stroke:#231F20;stroke-miterlimit:10;}
	.st4{fill:#FFFFFF;}
	.st5{opacity:0.4;fill:#FFD700;}
	.st6{opacity:0.3;fill:#2B00FF;}
	.st7{opacity:0.2;fill:#FF0068;}
	.st8{opacity:0.2;fill:#F16522;}
	.st9{fill:#FF0068;}
	.st10{fill:none;stroke:#231F20;stroke-miterlimit:10;stroke-dasharray:1.8739,1.8739;}
	.st11{fill:none;stroke:#231F20;stroke-miterlimit:10;stroke-dasharray:2.0477,2.0477;}
	.st12{fill:none;stroke:#231F20;stroke-miterlimit:10;stroke-dasharray:2.0994,2.0994;}
	.st13{fill:none;stroke:#231F20;stroke-miterlimit:10;stroke-dasharray:1.9521,1.9521;}
	.st14{fill:none;stroke:#231F20;stroke-miterlimit:10;stroke-dasharray:1.9635,1.9635;}
	.st15{fill:none;stroke:#231F20;stroke-miterlimit:10;stroke-dasharray:2.0756,2.0756;}
	.st16{fill:#FFFFFF;stroke:#FF0066;stroke-miterlimit:10;}
	.st17{fill:none;stroke:#231F20;stroke-miterlimit:10;stroke-dasharray:1.9843,1.9843;}
	.st18{fill:#2B00FF;}
	.st19{fill:#FFFFFF;stroke:#2B00FF;stroke-miterlimit:10;}
	.st20{fill:none;stroke:#231F20;stroke-width:2;stroke-miterlimit:10;}
	.st21{fill:none;stroke:#FF0066;stroke-width:1.5;stroke-miterlimit:10;}
	.st22{fill:#FF0066;}
	.st23{opacity:0.05;fill:#231F20;}
	.st24{fill:none;stroke:#FFD700;stroke-width:1.5;stroke-miterlimit:10;stroke-dasharray:2,2;}
	.st25{fill:#FFD700;}
	.st26{fill:none;stroke:#2B00FF;stroke-width:1.5;stroke-miterlimit:10;stroke-dasharray:2,2;}
	.st27{fill:none;stroke:#2B00FF;stroke-width:1.5;stroke-miterlimit:10;}
	.st28{fill:none;stroke:#2B00FF;stroke-width:1.5;stroke-miterlimit:10;stroke-dasharray:1.978,1.978;}
	.st29{fill:none;}
	.st30{font-family:'Poppins-Regular';}
	.st31{font-size:15px;}
	.st32{fill:#231F20;stroke:#FFFFFF;stroke-miterlimit:10;}
	.st33{fill:none;stroke:#000000;stroke-width:1.5;stroke-miterlimit:10;}
	.st34{fill:none;stroke:#231F20;stroke-width:1.5;stroke-miterlimit:10;}
	.st35{fill:none;stroke:#FFD700;stroke-width:1.5;stroke-miterlimit:10;}
	.st36{fill:none;stroke:#FFD700;stroke-width:1.5;stroke-miterlimit:10;stroke-dasharray:1.9966,1.9966;}
	.st37{fill:none;stroke:#FFD700;stroke-width:1.5;stroke-miterlimit:10;stroke-dasharray:1.9907,1.9907;}
	.st38{font-family:'Poppins-Medium';}
	.st39{font-size:9px;}
	.st40{clip-path:url(#SVGID_00000179645701367878570740000010958137099023916692_);fill:#231F20;}
	.st41{clip-path:url(#SVGID_00000179645701367878570740000010958137099023916692_);fill:#FFFFFF;}
	
		.st42{clip-path:url(#SVGID_00000179645701367878570740000010958137099023916692_);fill:none;stroke:#231F20;stroke-width:2.9868;stroke-miterlimit:10;}
</style>
<rect x="186.25" y="330.61" class="st23" width="368.69" height="230.59"/>
<g>
	<g>
		<polyline class="st24" points="312.66,250.13 432.46,250.13 432.46,354.66 		"/>
		<g>
			<polygon class="st25" points="426.33,349.69 427.43,348.67 432.46,354.09 437.5,348.67 438.6,349.69 432.46,356.29 			"/>
		</g>
	</g>
</g>
<g>
	<g>
		<polyline class="st26" points="312.66,263.78 414.96,263.78 414.96,354.3 		"/>
		<g>
			<polygon class="st18" points="408.83,349.33 409.93,348.31 414.96,353.72 420,348.31 421.1,349.33 414.96,355.93 			"/>
		</g>
	</g>
</g>
<g>
	<g>
		<line class="st24" x1="268.72" y1="269.13" x2="268.72" y2="353.36"/>
		<g>
			<polygon class="st25" points="262.59,348.39 263.69,347.36 268.72,352.78 273.76,347.36 274.86,348.39 268.72,354.98 			"/>
		</g>
	</g>
</g>
<g>
	<g>
		<line class="st26" x1="250.1" y1="269.13" x2="250.1" y2="353.36"/>
		<g>
			<polygon class="st18" points="243.97,348.39 245.07,347.36 250.1,352.78 255.14,347.36 256.23,348.39 250.1,354.98 			"/>
		</g>
	</g>
</g>
<g>
	<g>
		<line class="st21" x1="486.78" y1="178.44" x2="486.78" y2="352.52"/>
		<g>
			<polygon class="st22" points="480.64,347.55 481.74,346.53 486.77,351.95 491.81,346.53 492.91,347.55 486.77,354.15 			"/>
		</g>
	</g>
</g>
<g>
	<g>
		<line class="st27" x1="471.52" y1="178.44" x2="471.52" y2="179.44"/>
		<line class="st28" x1="471.52" y1="181.41" x2="471.52" y2="350.53"/>
		<line class="st27" x1="471.52" y1="351.52" x2="471.52" y2="352.52"/>
		<g>
			<polygon class="st18" points="465.39,347.55 466.49,346.53 471.52,351.95 476.56,346.53 477.65,347.55 471.52,354.15 			"/>
		</g>
	</g>
</g>
<rect x="229.06" y="47.39" class="st1" width="88.37" height="51.41"/>
<rect x="226.24" y="45.14" class="st2" width="86.82" height="50.5"/>
<rect x="225.5" y="64.93" class="st29" width="87.38" height="35.85"/>
<text transform="matrix(1 0 0 1 253.8454 76.033)" class="st30 st31">One</text>
<rect x="228.65" y="219.16" class="st1" width="88.37" height="51.41"/>
<rect x="225.82" y="216.91" class="st32" width="86.82" height="50.5"/>
<rect x="225.08" y="236.71" class="st29" width="87.38" height="35.85"/>
<text transform="matrix(1 0 0 1 245.7624 247.8084)" class="st4 st30 st31">Ingest</text>
<rect x="228.65" y="366.07" class="st1" width="88.37" height="51.41"/>
<rect x="225.82" y="363.82" class="st2" width="86.82" height="50.5"/>
<rect x="225.08" y="383.62" class="st29" width="87.38" height="35.85"/>
<text transform="matrix(1 0 0 1 244.5773 394.7153)" class="st30 st31">Node 1</text>
<rect x="410.87" y="367.93" class="st1" width="88.37" height="51.41"/>
<rect x="408.05" y="365.68" class="st2" width="86.82" height="50.5"/>
<rect x="407.31" y="385.48" class="st29" width="87.38" height="35.85"/>
<text transform="matrix(1 0 0 1 424.8923 396.5748)" class="st30 st31">Node 2</text>
<rect x="410.87" y="489.03" class="st1" width="88.37" height="51.41"/>
<rect x="408.05" y="486.79" class="st2" width="86.82" height="50.5"/>
<rect x="407.31" y="506.58" class="st29" width="87.38" height="35.85"/>
<text transform="matrix(1 0 0 1 424.7873 517.6813)" class="st30 st31">Node 3</text>
<g>
	<g>
		<polyline class="st33" points="225.5,69.26 83.61,69.26 83.61,118.05 		"/>
		<g>
			<polygon points="77.48,113.08 78.58,112.06 83.61,117.48 88.65,112.06 89.75,113.08 83.61,119.68 			"/>
		</g>
	</g>
</g>
<g>
	<g>
		<polyline class="st33" points="312.66,69.26 454.55,69.26 454.55,118.05 		"/>
		<g>
			<polygon points="448.41,113.08 449.51,112.06 454.54,117.48 459.58,112.06 460.68,113.08 454.54,119.68 			"/>
		</g>
	</g>
</g>
<g>
	<g>
		<polyline class="st33" points="426.46,177.72 426.46,230.88 324.29,230.88 		"/>
		<g>
			<polygon points="329.26,224.74 330.29,225.84 324.87,230.88 330.29,235.91 329.26,237.01 322.67,230.88 			"/>
		</g>
	</g>
</g>
<g>
	<g>
		<polyline class="st21" points="458.81,178.02 458.81,311.79 302.6,311.79 302.6,353.41 		"/>
		<g>
			<polygon class="st22" points="296.47,348.44 297.57,347.42 302.6,352.84 307.64,347.42 308.74,348.44 302.6,355.04 			"/>
		</g>
	</g>
</g>
<g>
	<g>
		<polyline class="st26" points="447.35,178.02 447.35,297.69 284.96,297.69 284.96,353.41 		"/>
		<g>
			<polygon class="st18" points="278.82,348.44 279.92,347.42 284.96,352.84 289.99,347.42 291.09,348.44 284.96,355.04 			"/>
		</g>
	</g>
</g>
<g>
	<g>
		<polyline class="st34" points="113.84,177.97 113.84,230.88 216.01,230.88 		"/>
		<g>
			<polygon class="st1" points="211.04,237.01 210.02,235.91 215.43,230.88 210.02,225.84 211.04,224.74 217.64,230.88 			"/>
		</g>
	</g>
</g>
<g>
	<g>
		<line class="st35" x1="96.57" y1="177.97" x2="96.57" y2="178.97"/>
		<line class="st36" x1="96.57" y1="180.97" x2="96.57" y2="251.85"/>
		<polyline class="st35" points="96.57,252.85 96.57,253.85 97.57,253.85 		"/>
		<line class="st37" x1="99.56" y1="253.85" x2="214.02" y2="253.85"/>
		<line class="st35" x1="215.02" y1="253.85" x2="216.02" y2="253.85"/>
		<g>
			<polygon class="st25" points="211.05,259.98 210.03,258.88 215.44,253.85 210.03,248.81 211.05,247.71 217.65,253.85 			"/>
		</g>
	</g>
</g>
<g>
	<g>
		<line class="st33" x1="268.72" y1="97.35" x2="268.72" y2="117.33"/>
		<g>
			<polygon points="262.59,112.36 263.69,111.34 268.72,116.76 273.76,111.34 274.86,112.36 268.72,118.96 			"/>
		</g>
	</g>
</g>
<g>
	<g>
		<line class="st21" x1="268.72" y1="184.45" x2="268.72" y2="213.22"/>
		<g>
			<polygon class="st22" points="262.59,208.25 263.69,207.23 268.72,212.65 273.76,207.23 274.86,208.25 268.72,214.85 			"/>
		</g>
	</g>
</g>
<path d="M158.38,78.83h-33.66c-4.88,0-8.87-3.99-8.87-8.87v0c0-4.88,3.99-8.87,8.87-8.87h33.66c4.88,0,8.87,3.99,8.87,8.87v0
	C167.25,74.83,163.26,78.83,158.38,78.83z"/>
<rect x="113.05" y="66.16" class="st29" width="57.53" height="10.94"/>
<text transform="matrix(1 0 0 1 125.9 72.8244)" class="st4 st38 st39">Embed</text>
<g>
	<path class="st18" d="M368.66,271.97h-20.37c-4.88,0-8.87-3.99-8.87-8.87l0,0c0-4.88,3.99-8.87,8.87-8.87h20.37
		c4.88,0,8.87,3.99,8.87,8.87l0,0C377.53,267.97,373.54,271.97,368.66,271.97z"/>
	<rect x="329.97" y="259.3" class="st29" width="57.53" height="10.94"/>
	<text transform="matrix(1 0 0 1 346.3657 265.9637)" class="st4 st38 st39">SWIM</text>
</g>
<g>
	<path d="M397.76,78.83h-33.66c-4.88,0-8.87-3.99-8.87-8.87v0c0-4.88,3.99-8.87,8.87-8.87h33.66c4.88,0,8.87,3.99,8.87,8.87v0
		C406.64,74.83,402.65,78.83,397.76,78.83z"/>
	<rect x="352.71" y="66.16" class="st29" width="57.53" height="10.94"/>
	<text transform="matrix(1 0 0 1 365.5653 72.8244)" class="st4 st38 st39">Embed</text>
</g>
<g>
	<path d="M390.84,238.23h-33.66c-4.88,0-8.87-3.99-8.87-8.87v0c0-4.88,3.99-8.87,8.87-8.87h33.66c4.88,0,8.87,3.99,8.87,8.87v0
		C399.72,234.23,395.72,238.23,390.84,238.23z"/>
	<rect x="345.79" y="225.56" class="st29" width="57.53" height="10.94"/>
	<text transform="matrix(1 0 0 1 358.6438 232.2225)" class="st4 st38 st39">Embed</text>
</g>
<g>
	<path d="M177.38,238.23h-33.66c-4.88,0-8.87-3.99-8.87-8.87v0c0-4.88,3.99-8.87,8.87-8.87h33.66c4.88,0,8.87,3.99,8.87,8.87v0
		C186.25,234.23,182.26,238.23,177.38,238.23z"/>
	<rect x="132.33" y="225.56" class="st29" width="57.53" height="10.94"/>
	<text transform="matrix(1 0 0 1 145.1817 232.2225)" class="st4 st38 st39">Embed</text>
</g>
<path class="st25" d="M168.6,262.81h-19.42c-4.88,0-8.87-3.99-8.87-8.87v0c0-4.88,3.99-8.87,8.87-8.87h19.42
	c4.88,0,8.87,3.99,8.87,8.87v0C177.47,258.81,173.48,262.81,168.6,262.81z"/>
<rect x="142.42" y="250.54" class="st29" width="31.65" height="10.94"/>
<text transform="matrix(1 0 0 1 149.4927 257.1978)" class="st1 st38 st39">TXN</text>
<g>
	<path class="st25" d="M413.68,259.01h-19.42c-4.88,0-8.87-3.99-8.87-8.87v0c0-4.88,3.99-8.87,8.87-8.87h19.42
		c4.88,0,8.87,3.99,8.87,8.87v0C422.55,255.01,418.56,259.01,413.68,259.01z"/>
	<rect x="374.56" y="246.74" class="st29" width="57.53" height="10.94"/>
	<text transform="matrix(1 0 0 1 394.5667 253.3999)" class="st1 st38 st39">TXN</text>
</g>
<g>
	<g>
		<line class="st26" x1="323.9" y1="392.19" x2="399.84" y2="392.19"/>
		<g>
			<polygon class="st18" points="328.87,398.32 329.89,397.22 324.48,392.19 329.89,387.15 328.87,386.05 322.27,392.19 			"/>
		</g>
		<g>
			<polygon class="st18" points="394.87,398.32 393.85,397.22 399.27,392.19 393.85,387.15 394.87,386.05 401.47,392.19 			"/>
		</g>
	</g>
</g>
<g>
	<g>
		<line class="st26" x1="451.56" y1="425.91" x2="451.56" y2="477.79"/>
		<g>
			<polygon class="st18" points="445.42,430.88 446.52,431.9 451.56,426.48 456.59,431.9 457.69,430.88 451.56,424.28 			"/>
		</g>
		<g>
			<polygon class="st18" points="445.42,472.81 446.52,471.79 451.56,477.21 456.59,471.79 457.69,472.81 451.56,479.41 			"/>
		</g>
	</g>
</g>
<g>
	<g>
		<polyline class="st26" points="265.97,431.16 265.97,513.11 393.37,513.11 		"/>
		<g>
			<polygon class="st18" points="259.83,436.13 260.93,437.15 265.97,431.73 271,437.15 272.1,436.13 265.97,429.53 			"/>
		</g>
		<g>
			<polygon class="st18" points="388.4,519.24 387.37,518.15 392.79,513.11 387.37,508.07 388.4,506.98 394.99,513.11 			"/>
		</g>
	</g>
</g>
<g>
	<rect x="228.65" y="126.85" class="st1" width="88.37" height="51.41"/>
	<rect x="225.82" y="124.6" class="st2" width="86.82" height="50.5"/>
	<rect x="225.08" y="144.4" class="st29" width="87.38" height="35.85"/>
	<text transform="matrix(1 0 0 1 241.9748 155.4959)" class="st30 st31">Reader</text>
</g>
<g>
	<rect x="413.34" y="126.85" class="st1" width="88.37" height="51.41"/>
	<rect x="410.51" y="124.6" class="st2" width="86.82" height="50.5"/>
	<rect x="409.77" y="144.4" class="st29" width="87.38" height="35.85"/>
	<text transform="matrix(1 0 0 1 427.1911 155.4959)" class="st30 st31">Search</text>
</g>
<g>
	<rect x="43.96" y="126.85" class="st1" width="88.37" height="51.41"/>
	<rect x="41.13" y="124.6" class="st2" width="86.82" height="50.5"/>
	<rect x="40.39" y="144.4" class="st29" width="87.38" height="35.85"/>
	<text transform="matrix(1 0 0 1 61.9416 155.4959)" class="st30 st31">Writer</text>
</g>
<g>
	<path class="st22" d="M279.11,199.65h-20.37c-4.88,0-8.87-3.99-8.87-8.87v0c0-4.88,3.99-8.87,8.87-8.87h20.37
		c4.88,0,8.87,3.99,8.87,8.87v0C287.98,195.66,283.99,199.65,279.11,199.65z"/>
	<rect x="240.43" y="186.99" class="st29" width="57.53" height="10.94"/>
	<text transform="matrix(1 0 0 1 256.7118 193.6501)" class="st4 st38 st39">GRPC</text>
</g>
<g>
	<path class="st22" d="M376.16,320.41h-20.37c-4.88,0-8.87-3.99-8.87-8.87l0,0c0-4.88,3.99-8.87,8.87-8.87h20.37
		c4.88,0,8.87,3.99,8.87,8.87l0,0C385.03,316.41,381.04,320.41,376.16,320.41z"/>
	<rect x="337.48" y="307.74" class="st29" width="57.53" height="10.94"/>
	<text transform="matrix(1 0 0 1 353.7619 314.4042)" class="st4 st38 st39">GRPC</text>
</g>
<g>
	<path class="st22" d="M496.45,210.56v20.37c0,4.88-3.99,8.87-8.87,8.87l0,0c-4.88,0-8.87-3.99-8.87-8.87v-20.37
		c0-4.88,3.99-8.87,8.87-8.87l0,0C492.45,201.68,496.45,205.68,496.45,210.56z"/>
	<rect x="483.78" y="191.71" class="st29" width="10.94" height="57.53"/>
	<text transform="matrix(0 -1 1 0 490.4435 232.9561)" class="st4 st38 st39">GRPC</text>
</g>
</svg>
