<?xml version="1.0" encoding="utf-8"?>
<!-- Generator: Adobe Illustrator 26.0.3, SVG Export Plug-In . SVG Version: 6.00 Build 0)  -->
<svg version="1.1" id="Capa_1" xmlns="http://www.w3.org/2000/svg" xmlns:xlink="http://www.w3.org/1999/xlink" x="0px" y="0px"
	 viewBox="0 0 684.62 207.87" style="enable-background:new 0 0 684.62 207.87;" xml:space="preserve">
<style type="text/css">
	.st0{fill:none;stroke:#000000;stroke-miterlimit:10;}
	.st1{fill:#231F20;}
	.st2{fill:#FFFFFF;stroke:#231F20;stroke-miterlimit:10;}
	.st3{fill:none;stroke:#231F20;stroke-miterlimit:10;}
	.st4{fill:#FFFFFF;}
	.st5{opacity:0.4;fill:#FFD700;}
	.st6{opacity:0.3;fill:#2B00FF;}
	.st7{opacity:0.2;fill:#FF0068;}
	.st8{opacity:0.2;fill:#F16522;}
	.st9{fill:#FF0068;}
	.st10{fill:none;stroke:#231F20;stroke-miterlimit:10;stroke-dasharray:1.8739,1.8739;}
	.st11{fill:none;stroke:#231F20;stroke-miterlimit:10;stroke-dasharray:2.0477,2.0477;}
	.st12{fill:none;stroke:#231F20;stroke-miterlimit:10;stroke-dasharray:2.0994,2.0994;}
	.st13{fill:none;stroke:#231F20;stroke-miterlimit:10;stroke-dasharray:1.9521,1.9521;}
	.st14{fill:none;stroke:#231F20;stroke-miterlimit:10;stroke-dasharray:1.9635,1.9635;}
	.st15{fill:none;stroke:#231F20;stroke-miterlimit:10;stroke-dasharray:2.0756,2.0756;}
	.st16{fill:#FFFFFF;stroke:#FF0066;stroke-miterlimit:10;}
	.st17{fill:none;stroke:#231F20;stroke-miterlimit:10;stroke-dasharray:1.9843,1.9843;}
	.st18{fill:#2B00FF;}
	.st19{fill:#FFFFFF;stroke:#2B00FF;stroke-miterlimit:10;}
	.st20{fill:none;stroke:#231F20;stroke-width:2;stroke-miterlimit:10;}
	.st21{fill:none;stroke:#FF0066;stroke-width:1.5;stroke-miterlimit:10;}
	.st22{fill:#FF0066;}
	.st23{fill:none;}
	.st24{font-family:'Poppins-Medium';}
	.st25{font-size:9px;}
	.st26{font-family:'Poppins-Regular';}
	.st27{font-size:15px;}
	.st28{opacity:0.05;fill:#231F20;}
	.st29{fill:none;stroke:#FFD700;stroke-width:1.5;stroke-miterlimit:10;stroke-dasharray:2,2;}
	.st30{fill:#FFD700;}
	.st31{fill:none;stroke:#2B00FF;stroke-width:1.5;stroke-miterlimit:10;stroke-dasharray:2,2;}
	.st32{fill:none;stroke:#2B00FF;stroke-width:1.5;stroke-miterlimit:10;}
	.st33{fill:none;stroke:#2B00FF;stroke-width:1.5;stroke-miterlimit:10;stroke-dasharray:1.978,1.978;}
	.st34{fill:#231F20;stroke:#FFFFFF;stroke-miterlimit:10;}
	.st35{fill:none;stroke:#000000;stroke-width:1.5;stroke-miterlimit:10;}
	.st36{fill:none;stroke:#231F20;stroke-width:1.5;stroke-miterlimit:10;}
	.st37{fill:none;stroke:#FFD700;stroke-width:1.5;stroke-miterlimit:10;}
	.st38{fill:none;stroke:#FFD700;stroke-width:1.5;stroke-miterlimit:10;stroke-dasharray:1.9966,1.9966;}
	.st39{fill:none;stroke:#FFD700;stroke-width:1.5;stroke-miterlimit:10;stroke-dasharray:1.9907,1.9907;}
	.st40{clip-path:url(#SVGID_00000045591209646128224640000008224706025988851627_);fill:#231F20;}
	.st41{clip-path:url(#SVGID_00000045591209646128224640000008224706025988851627_);fill:#FFFFFF;}
	
		.st42{clip-path:url(#SVGID_00000045591209646128224640000008224706025988851627_);fill:none;stroke:#231F20;stroke-width:2.9868;stroke-miterlimit:10;}
</style>
<g>
	<g>
		<polyline class="st21" points="451.99,128.71 451.99,149.57 339.46,149.57 339.46,133.33 		"/>
		<g>
			<polygon class="st22" points="345.59,138.3 344.49,139.33 339.46,133.91 334.42,139.33 333.32,138.3 339.46,131.71 			"/>
		</g>
	</g>
</g>
<g>
	<g>
		<polyline class="st21" points="452.21,68.09 452.21,44.23 229.21,44.23 229.21,61.46 		"/>
		<g>
			<polygon class="st22" points="223.07,56.49 224.17,55.47 229.2,60.89 234.24,55.47 235.34,56.49 229.2,63.09 			"/>
		</g>
	</g>
</g>
<g>
	<g>
		<line class="st21" x1="106" y1="95.99" x2="171.56" y2="95.99"/>
		<g>
			<polygon class="st22" points="166.59,102.13 165.56,101.03 170.98,95.99 165.56,90.96 166.59,89.86 173.18,95.99 			"/>
		</g>
	</g>
</g>
<g>
	<path class="st22" d="M557.72,110.71h-20.37c-4.88,0-8.87-3.99-8.87-8.87v0c0-4.88,3.99-8.87,8.87-8.87h20.37
		c4.88,0,8.87,3.99,8.87,8.87v0C566.6,106.72,562.61,110.71,557.72,110.71z"/>
	<rect x="519.04" y="98.05" class="st23" width="57.53" height="10.94"/>
	<text transform="matrix(1 0 0 1 535.3281 104.7075)" class="st4 st24 st25">GRPC</text>
</g>
<g>
	<path class="st22" d="M409.14,158.44h-20.37c-4.88,0-8.87-3.99-8.87-8.87v0c0-4.88,3.99-8.87,8.87-8.87h20.37
		c4.88,0,8.87,3.99,8.87,8.87v0C418.01,154.45,414.02,158.44,409.14,158.44z"/>
	<rect x="370.46" y="145.78" class="st23" width="57.53" height="10.94"/>
	<text transform="matrix(1 0 0 1 386.7445 152.4392)" class="st4 st24 st25">GRPC</text>
</g>
<g>
	<path class="st22" d="M352.23,53.1h-20.37c-4.88,0-8.87-3.99-8.87-8.87v0c0-4.88,3.99-8.87,8.87-8.87h20.37
		c4.88,0,8.87,3.99,8.87,8.87v0C361.1,49.11,357.11,53.1,352.23,53.1z"/>
	<rect x="313.55" y="40.44" class="st23" width="57.53" height="10.94"/>
	<text transform="matrix(1 0 0 1 329.8341 47.1005)" class="st4 st24 st25">GRPC</text>
</g>
<g>
	<path class="st22" d="M147.51,104.86h-20.37c-4.88,0-8.87-3.99-8.87-8.87v0c0-4.88,3.99-8.87,8.87-8.87h20.37
		c4.88,0,8.87,3.99,8.87,8.87v0C156.38,100.87,152.39,104.86,147.51,104.86z"/>
	<rect x="108.83" y="92.2" class="st23" width="57.53" height="10.94"/>
	<text transform="matrix(1 0 0 1 125.1145 98.8623)" class="st4 st24 st25">GRPC</text>
</g>
<g>
	<rect x="298.88" y="73.19" class="st1" width="88.37" height="51.41"/>
	<rect x="296.05" y="70.94" class="st2" width="86.82" height="50.5"/>
	<rect x="295.32" y="90.74" class="st23" width="87.38" height="35.85"/>
	<text transform="matrix(1 0 0 1 312.2087 101.836)" class="st26 st27">Reader</text>
</g>
<g>
	<rect x="408.68" y="73.19" class="st1" width="88.37" height="51.41"/>
	<rect x="405.85" y="70.94" class="st2" width="86.82" height="50.5"/>
	<rect x="405.11" y="90.74" class="st23" width="87.38" height="35.85"/>
	<text transform="matrix(1 0 0 1 420.4187 101.836)" class="st26 st27">Sidecar</text>
</g>
<rect x="189.08" y="73.19" class="st1" width="88.37" height="51.41"/>
<rect x="186.25" y="70.94" class="st2" width="86.82" height="50.5"/>
<rect x="185.52" y="90.74" class="st23" width="87.38" height="35.85"/>
<text transform="matrix(1 0 0 1 207.0666 101.836)" class="st26 st27">Writer</text>
<rect x="27.21" y="87.74" class="st23" width="87.38" height="35.85"/>
<text transform="matrix(1 0 0 1 48.258 98.836)" class="st24 st27">Query</text>
<rect x="572.82" y="95.99" class="st23" width="87.38" height="35.85"/>
<text transform="matrix(1 0 0 1 588.8069 107.09)" class="st24 st27">Stream</text>
</svg>
