<svg id="Capa_1" data-name="Capa 1" xmlns="http://www.w3.org/2000/svg" viewBox="0 0 407 120"><defs><style>.cls-1{fill:#ff006a;}</style></defs><path class="cls-1" d="M250.22,58.38h-2.93l2.22-8.15h9.75V74.68h2.86L260,82.82h-9.75Zm-.7-17.74a5,5,0,1,1,5,5A4.92,4.92,0,0,1,249.52,40.64Z"/><path class="cls-1" d="M264.73,66.53c0-9.85,6.78-17.22,15.85-17.22a12.44,12.44,0,0,1,10.88,5.55V50.23h8.89V74.68h2.93l-2.21,8.14h-9.61V71.74l-2.8,9.39a13.17,13.17,0,0,1-8.08,2.61C271.51,83.74,264.73,76.44,264.73,66.53Zm26.73-.17a8.74,8.74,0,1,0-8.77,9A8.66,8.66,0,0,0,291.46,66.36Z"/><path class="cls-1" d="M142.37,48.85a13.88,13.88,0,0,0-9,3.08V49.57h-9V82.75h9.71V63.45a5.48,5.48,0,0,1,5.67-5.8c3.32,0,5.55,2.33,5.55,5.8v19.3H155V62.28C155,54.12,150,48.85,142.37,48.85Z"/><path class="cls-1" d="M181.82,68.8a5.4,5.4,0,0,1-5.55,5.74,5.46,5.46,0,0,1-5.67-5.74V49.57h-9.71V68.08c0,9.1,6.33,15.45,15.38,15.45s15.26-6.35,15.26-15.45V49.57h-9.71Z"/><path class="cls-1" d="M221.15,70.1c-2.17,3.07-4.44,4.44-7.38,4.44-4.73,0-8-3.46-8-8.41s3.38-8.35,8-8.35c3,0,5.33,1.42,7.38,4.49l.27.4,6.82-5.29-.19-.34a15.94,15.94,0,0,0-14.41-8.19c-9.95,0-17.73,7.59-17.73,17.28a17.38,17.38,0,0,0,17.73,17.4,16,16,0,0,0,14.41-8.25l.19-.34-6.81-5.22Z"/><rect class="cls-1" x="232.42" y="32.94" width="9.71" height="49.8"/><path class="cls-1" d="M308.54,66.06a16.71,16.71,0,0,1,16.77-17,14.58,14.58,0,0,1,13.13,7.15V40.91h-2.6l1.1-4.1h5.79V78.22h2.6l-1.11,4.09h-5.78V75.94a14.56,14.56,0,0,1-13.13,7.15A16.7,16.7,0,0,1,308.54,66.06Zm29.9,0a12.81,12.81,0,1,0-12.81,12.87A12.68,12.68,0,0,0,338.44,66.06Z"/><path class="cls-1" d="M355.6,75.94v6.37h-4.29V40.91h-2.6l1.1-4.1h5.79V56.18A14.57,14.57,0,0,1,368.73,49a17,17,0,0,1,0,34.06A14.55,14.55,0,0,1,355.6,75.94Zm25.61-9.88A12.81,12.81,0,1,0,368.4,78.93,12.72,12.72,0,0,0,381.21,66.06Z"/><path class="cls-1" d="M98.66,37.78,60.47,16.43a.19.19,0,0,0-.18,0L21.94,37.49a.19.19,0,0,0,0,.33L57.4,57.52a.19.19,0,0,0,.18,0,5.47,5.47,0,0,1,5.71.13.17.17,0,0,0,.18,0L98.66,38.11A.19.19,0,0,0,98.66,37.78Z"/><path class="cls-1" d="M65.77,62.08a.71.71,0,0,1,0,.14A5.47,5.47,0,0,1,63,67a.16.16,0,0,0-.09.15v41a.19.19,0,0,0,.28.16l38.24-21.21a.2.2,0,0,0,.09-.17V42.55a.18.18,0,0,0-.27-.17Z"/><path class="cls-1" d="M58.05,67.29v41a.18.18,0,0,1-.27.16L19.21,87a.21.21,0,0,1-.1-.17V42.27a.19.19,0,0,1,.28-.16L54.9,61.83c0,.13,0,.26,0,.39A5.46,5.46,0,0,0,58,67.13.18.18,0,0,1,58.05,67.29Z"/></svg>